<svg
        width="17"
        height="16"
        viewBox="0 0 17 16"
        fill="none"
        xmlns="http://www.w3.org/2000/svg"
    >
        <g clipPath="url(#clip0_1)">
            <path
                d="M3.25 1.33334C3.25 1.29789 3.26806 1.26527 3.29157 1.25099C3.5823 1.15293 3.89797 1.08333 4.25 1.08333H12.75C13.102 1.08333 13.4177 1.15293 13.7084 1.25099C13.7319 1.26527 13.75 1.29789 13.75 1.33334V1.83334H3.25V1.33334ZM2.25 4.08334H14.75C15.0927 4.08334 15.4167 4.13983 15.7083 4.24999C15.9887 4.35541 16.25 4.55758 16.25 5.08334V12.0833C16.25 12.6091 15.9887 12.8113 15.7083 12.9167C15.4167 13.0269 15.0927 13.0833 14.75 13.0833H2.25C1.9073 13.0833 1.58333 13.0269 1.29167 12.9167C1.0113 12.8113 0.75 12.6091 0.75 12.0833V5.08334C0.75 4.55758 1.0113 4.35541 1.29167 4.24999C1.58333 4.13983 1.9073 4.08334 2.25 4.08334Z"
                fill="#A0A0A0"
            />
        </g>
        <defs>
            <clipPath id="clip0_1">
                <rect width="17" height="16" fill="white" />
            </clipPath>
        </defs>
    </svg>
